<svg width="50" height="50" viewBox="0 0 50 50" fill="none" xmlns="http://www.w3.org/2000/svg">
<rect x="0.5" y="0.5" width="49" height="49" rx="24.5" stroke="black"/>
<g clip-path="url(#clip0_1_72)">
<rect width="10" height="10" transform="matrix(4.37114e-08 -1 -1 -4.37114e-08 29 30)" fill="white"/>
<path d="M21.1513 25C21.1513 25.1793 21.2197 25.3585 21.3563 25.4951L25.6561 29.7949C25.9296 30.0684 26.3731 30.0684 26.6465 29.7949C26.9199 29.5214 26.9199 29.0781 26.6465 28.8045L22.8418 25L26.6464 21.1955C26.9198 20.922 26.9198 20.4787 26.6464 20.2053C26.373 19.9316 25.9295 19.9316 25.656 20.2053L21.3562 24.505C21.2196 24.6417 21.1513 24.8209 21.1513 25Z" fill="black"/>
</g>
<defs>
<clipPath id="clip0_1_72">
<rect width="10" height="10" fill="white" transform="matrix(4.37114e-08 -1 -1 -4.37114e-08 29 30)"/>
</clipPath>
</defs>
</svg>
